#!OML:ASF F:\VICON\USERDATA\INSTALL\rory3\rory3.ASF
:FULLY-SPECIFIED
:DEGREES
57
root 0.5641791766671578 18.39383557683923 20.144794565420728 2.536707665121708 -0.11511372664964559 -4.192393310717016
lfemur -34.22843449076806 2.909713905672527 -19.81107375023588
ltibia 46.3397797940978
lfoot -0.7438013644573047 -9.48809333358369
ltoes -8.861892133033441
rfemur 0.032851992075773495 5.298026578659831 31.644059135733073
rtibia 43.44966210739026
rfoot 10.359393888100483 -5.4080745462960165
rtoes 4.480987946154633
lowerback 13.001032693312972 1.8573711257515426 4.811999664605181
upperback -2.0056615320809494 4.26075444775045 1.3130327261145898
thorax -8.93215625855061 1.8122616573490022 -1.8705843184433988
lowerneck -19.51762263927196 -4.664292464713867 -2.347164788133288
upperneck 12.526058564100259 -7.275544487475282 5.189490800796763
head 7.291038937350239 -2.8761328151954446 1.241897123265182
lclavicle 2.9801537496917e-15 1.1901017953974073e-16
lhumerus -55.277787020220465 -8.887635849869014 96.10536206932763
lradius 113.55469051496392
lwrist 34.191256122566806
lhand -20.634368879890754 2.855817076486764
lfingers 7.125019999999999
lthumb 5.657483914298013 32.79673415759634
rclavicle 2.980101966113704e-15 1.1898187584741903e-16
rhumerus -37.8448447331954 15.343168198437446 -95.27562895656276
rradius 113.01440376673702
rwrist -15.302743139686891
rhand -15.690009737977562 38.51619291608208
rfingers 7.125019999999999
rthumb 10.6135170666925 8.467439978434138
58
root 0.5664310043897629 18.419455360359276 20.942111569541932 2.466747932680663 0.07283208085216542 -4.235945212042477
lfemur -32.72936840253536 2.2972252803923516 -20.16292281037533
ltibia 38.97623400980738
lfoot -2.5610821136325415 -10.109765908516927
ltoes -8.263392697830403
rfemur 1.2811790735885609 5.721162186819827 31.677203633124044
rtibia 46.41742125182071
rfoot 10.032269204020599 -6.038969828362517
rtoes 3.8394705255327057
lowerback 12.981190838619678 1.841948867502657 4.494400375678637
upperback -1.9648400781559188 4.178079218901125 1.2630293065941742
thorax -8.933611531395487 1.7822412119000246 -1.7150827251529803
lowerneck -19.55379961299159 -4.811106765657221 -2.399775146556521
upperneck 12.581611001675862 -7.2383603103816805 5.305361956568251
head 7.282980200136945 -2.9151171806158698 1.2645007848298326
lclavicle 2.9801537496917e-15 1.1901017953974073e-16
lhumerus -55.985032769066606 -8.84589295094237 95.82803593099229
lradius 113.35023458026457
lwrist 34.145369629389585
lhand -20.66749198076127 2.785992791403233
lfingers 7.125019999999999
lthumb 5.672958619859642 32.81639742121188
rclavicle 2.9801019661137037e-15 1.1898187584741888e-16
rhumerus -38.6030607367651 15.654273672146006 -95.4549908555558
rradius 113.17589678011005
rwrist -15.191544980164858
rhand -15.667571235654755 38.55581875766648
rfingers 7.125019999999999
rthumb 10.70909755834998 8.522000826469965
59
root 0.5586866209581238 18.37193099881902 20.666136334547307 2.1517849818627193 -0.01663097568971117 -4.320037730815574
lfemur -32.04055151888629 1.9362489521701356 -20.506552305030134
ltibia 33.216052911150804
lfoot -2.3930674205672595 -9.567326736264754
ltoes -6.871739063903246
rfemur 2.5780148293925897 6.189423879810461 31.923472726678913
rtibia 49.82859101661859
rfoot 9.28312243198752 -6.738004082050443
rtoes 3.1589472975638633
lowerback 13.026662323430696 1.7326741158811616 4.021017443942703
upperback -1.813035688101796 4.071777243835432 1.2643099924311103
thorax -8.949834373866196 1.7363573294244756 -1.5309974977732412
lowerneck -19.50489669365453 -4.862937999517705 -2.4132623850916826
upperneck 12.636850362005344 -7.162029469089318 5.448521993683049
head 7.29985620081319 -2.898072804927023 1.3188153357507542
lclavicle 2.9801537496917e-15 1.1901017953974073e-16
lhumerus -55.81476241255221 -8.613059669218382 95.74233006804342
lradius 113.06475818761888
lwrist 33.80357616113258
lhand -20.609031398780566 2.8675126832263933
lfingers 7.125019999999999
lthumb 5.706993615139982 32.84614966928203
rclavicle 2.9801019661137037e-15 1.1898187584741888e-16
rhumerus -39.507932474162104 15.900676787434278 -95.75007072351654
rradius 113.35106770287157
rwrist -15.157424549451857
rhand -15.688016389927657 38.526137849126606
rfingers 7.125019999999999
rthumb 10.661801409879619 8.456302016878604
60
root 0.5471869763381039 18.279820863340795 20.509433377992025 1.6828373666457144 -0.01617850245069974 -4.259922685735557
lfemur -30.85258133633591 1.7039286356948598 -21.016663796642646
ltibia 29.64456423907276
lfoot -2.711069694955718 -8.628318833655609
ltoes -5.2290739153829895
rfemur -0.5236732530172574 5.778746029141099 31.213590346951143
rtibia 53.538130652410544
rfoot 8.51619544693378 -7.168684579682625
rtoes 2.199009052393201
lowerback 13.173718050875156 1.5945705981457436 3.450852051566989
upperback -1.6149707543541156 3.7955862569845165 1.2264753125055297
thorax -8.967123545212909 1.6635228807451374 -1.2404917687798698
lowerneck -19.514457149162332 -4.955052917247975 -2.4561380010836915
upperneck 12.616856279405756 -7.072752350023527 5.574141970304288
head 7.273976730474007 -2.9056643580813004 1.3528863894990386
lclavicle 2.9801537496917e-15 1.1901017953974073e-16
lhumerus -56.727364146216594 -9.203870752488406 95.45474836660921
lradius 112.73471907639998
lwrist 33.69200154538543
lhand -20.601233977907647 2.877904672064126
lfingers 7.125019999999999
lthumb 5.705913531508109 32.795081689569116
rclavicle 2.9801019661137037e-15 1.1898187584741879e-16
rhumerus -40.312184698402135 16.15041692078682 -96.10071701134153
rradius 113.5628105971719
rwrist -15.170024938513528
rhand -15.641017310079214 38.556495739387195
rfingers 7.125019999999999
rthumb 10.724490077803152 8.445122433997177
